<svg width='200' height='200' fill="#000000" xmlns="http://www.w3.org/2000/svg" data-name="Layer 1" viewBox="0 0 100 100" x="0px" y="0px"><title>Artboard 29</title><path d="M1.24,58.88,6.38,47.33a15.13,15.13,0,0,0,1.31-6.16A31.17,31.17,0,0,1,38.52,10l-.74.74a9.81,9.81,0,0,0-2.07,10.75,9.81,9.81,0,0,0-6.13,9.06v3.1a9.81,9.81,0,0,0,6.14,9.06,9.81,9.81,0,0,0,2.07,10.74L40,55.64a9.7,9.7,0,0,0,6.9,2.86,9.81,9.81,0,0,0,3.84-.79,9.81,9.81,0,0,0,9.06,6.13h1.91l4.46,15.62A3.11,3.11,0,0,1,64,83.32L31.71,92.53a3.11,3.11,0,0,1-3.85-2.14l-2.51-8.78H13.3A5.61,5.61,0,0,1,7.69,76V64.15l-4.84-1.6A2.7,2.7,0,0,1,1.24,58.88ZM98,64.55,95.87,66a12.29,12.29,0,0,1-.49,4.86l1.83,1.87a2.2,2.2,0,0,1,.21,2.83l-1.42,2a2.2,2.2,0,0,1-2.75.7L90.9,77.12a12.15,12.15,0,0,1-4.45,2l-.71,2.52a2.21,2.21,0,0,1-2.34,1.6L81,83a2.21,2.21,0,0,1-2-2l-.19-2.61a12.15,12.15,0,0,1-4-2.85l-2.54.65a2.2,2.2,0,0,1-2.56-1.23l-1-2.22A2.21,2.21,0,0,1,69.51,70l2.16-1.47a12.26,12.26,0,0,1,.49-4.86l-1.83-1.87a2.21,2.21,0,0,1-.21-2.83l1.42-2a2.21,2.21,0,0,1,2.75-.7l2.36,1.14a12.14,12.14,0,0,1,4.45-2l.71-2.52a2.21,2.21,0,0,1,2.34-1.6l2.42.24a2.21,2.21,0,0,1,2,2l.19,2.61a12.14,12.14,0,0,1,4,2.85l2.54-.65A2.2,2.2,0,0,1,97.8,59.6l1,2.22A2.2,2.2,0,0,1,98,64.55Zm-9.68,3.18a4.6,4.6,0,1,0-5,4.12A4.6,4.6,0,0,0,88.35,67.72ZM42.49,44.87,45,41.52a18.73,18.73,0,0,1-1.9-4.57L39,36.39a2.77,2.77,0,0,1-2.39-2.74v-3.1A2.77,2.77,0,0,1,39,27.81l4.18-.56A18.68,18.68,0,0,1,45,22.68l-2.56-3.35a2.77,2.77,0,0,1,.24-3.63l2.19-2.19a2.77,2.77,0,0,1,3.63-.24l3.36,2.56a18.69,18.69,0,0,1,4.57-1.9L57,9.74a2.77,2.77,0,0,1,2.74-2.39h3.1a2.77,2.77,0,0,1,2.74,2.39l.56,4.18a18.67,18.67,0,0,1,4.57,1.9l3.35-2.56a2.77,2.77,0,0,1,3.63.24l2.19,2.19a2.77,2.77,0,0,1,.24,3.63l-2.56,3.36a18.71,18.71,0,0,1,1.9,4.57l4.17.56a2.77,2.77,0,0,1,2.39,2.74v3.1a2.77,2.77,0,0,1-2.39,2.74l-4.18.56a18.68,18.68,0,0,1-1.9,4.57l2.56,3.35a2.77,2.77,0,0,1-.24,3.63l-2.19,2.19a2.77,2.77,0,0,1-3.63.24l-3.36-2.56a18.7,18.7,0,0,1-4.57,1.9l-.56,4.17a2.77,2.77,0,0,1-2.74,2.39h-3.1A2.77,2.77,0,0,1,57,54.45l-.56-4.18a18.71,18.71,0,0,1-4.57-1.9l-3.35,2.56a2.77,2.77,0,0,1-3.63-.24L42.73,48.5A2.77,2.77,0,0,1,42.49,44.87ZM55,32.1a6.33,6.33,0,0,0,12.66,0h0a6.33,6.33,0,0,0-12.66,0Z"/></svg>