<?xml version="1.0" standalone="no"?><!DOCTYPE svg PUBLIC "-//W3C//DTD SVG 1.1//EN" "http://www.w3.org/Graphics/SVG/1.1/DTD/svg11.dtd"><svg t="1607245122732" class="icon" viewBox="0 0 1024 1024" version="1.1" xmlns="http://www.w3.org/2000/svg" p-id="3138" width="32" height="32" xmlns:xlink="http://www.w3.org/1999/xlink"><defs><style type="text/css"></style></defs><path d="M874.7 847.06c0 30.74-25.15 55.89-55.89 55.89H204.49c-31.24 0-55.89-25.15-55.89-55.89V360.19h726.1V304.3h-726v-71.66c0-30.74 24.55-55.89 55.89-55.89h111.68v27.95c0 15.67 12.28 27.94 27.95 27.94 15.07 0 27.95-12.28 27.95-27.94v-27.95h279.26v27.95c0 15.67 12.28 27.94 27.94 27.94 15.07 0 27.95-12.28 27.95-27.94v-27.95H819c30.74 0 55.89 25.15 55.89 55.89v614.42h-0.19z m-55.79-726.11H707.23V93c0-15.07-12.88-27.94-27.95-27.94-15.67 0-27.94 12.88-27.94 27.94v27.95H372.07V93c0-15.07-12.88-27.94-27.95-27.94-15.67 0-27.95 12.88-27.95 27.94v27.95H204.49c-61.98 0-111.69 50.3-111.69 111.68v614.32c0 61.98 49.7 111.68 111.69 111.68h614.32c61.48 0 111.68-49.7 111.68-111.68V232.64c0.11-61.38-50.2-111.69-111.58-111.69z" p-id="3139" fill="#707070"></path><path d="M672.69 664.61h94.52v92.62h-94.52v-92.62z m-208.2 0h94.52v92.62h-94.52v-92.62z m-208.2 0h94.52v92.62h-94.52v-92.62z m416.4-196.53h94.52v92.62h-94.52v-92.62z m-208.2 0h94.52v92.62h-94.52v-92.62z m-208.2 0h94.52v92.62h-94.52v-92.62z" p-id="3140" fill="#707070"></path></svg>